<?xml version="1.0" encoding="UTF-8"?>
<!--Generator: Apple Native CoreSVG 341-->
<!DOCTYPE svg
PUBLIC "-//W3C//DTD SVG 1.1//EN"
       "http://www.w3.org/Graphics/SVG/1.1/DTD/svg11.dtd">
<svg version="1.1" xmlns="http://www.w3.org/2000/svg" xmlns:xlink="http://www.w3.org/1999/xlink" viewBox="0 0 3300 2200">
 <!--glyph: "10140C", point size: 100.0, font version: "21.0d6e2", template writer version: "138.0.0"-->
 <style>.SFSymbolsPreviewWireframe {fill:none;opacity:1.0;stroke:black;stroke-width:0.5}
</style>
 <g id="Notes">
  <rect height="2200" id="artboard" style="fill:white;opacity:1" width="3300" x="0" y="0"/>
  <line style="fill:none;stroke:black;opacity:1;stroke-width:0.5;" x1="263" x2="3036" y1="292" y2="292"/>
  <text style="stroke:none;fill:black;font-family:sans-serif;font-size:13;font-weight:bold;" transform="matrix(1 0 0 1 263 322)">Weight/Scale Variations</text>
  <text style="stroke:none;fill:black;font-family:sans-serif;font-size:13;text-anchor:middle;" transform="matrix(1 0 0 1 559.711 322)">Ultralight</text>
  <text style="stroke:none;fill:black;font-family:sans-serif;font-size:13;text-anchor:middle;" transform="matrix(1 0 0 1 856.422 322)">Thin</text>
  <text style="stroke:none;fill:black;font-family:sans-serif;font-size:13;text-anchor:middle;" transform="matrix(1 0 0 1 1153.13 322)">Light</text>
  <text style="stroke:none;fill:black;font-family:sans-serif;font-size:13;text-anchor:middle;" transform="matrix(1 0 0 1 1449.84 322)">Regular</text>
  <text style="stroke:none;fill:black;font-family:sans-serif;font-size:13;text-anchor:middle;" transform="matrix(1 0 0 1 1746.56 322)">Medium</text>
  <text style="stroke:none;fill:black;font-family:sans-serif;font-size:13;text-anchor:middle;" transform="matrix(1 0 0 1 2043.27 322)">Semibold</text>
  <text style="stroke:none;fill:black;font-family:sans-serif;font-size:13;text-anchor:middle;" transform="matrix(1 0 0 1 2339.98 322)">Bold</text>
  <text style="stroke:none;fill:black;font-family:sans-serif;font-size:13;text-anchor:middle;" transform="matrix(1 0 0 1 2636.69 322)">Heavy</text>
  <text style="stroke:none;fill:black;font-family:sans-serif;font-size:13;text-anchor:middle;" transform="matrix(1 0 0 1 2933.4 322)">Black</text>
  <line style="fill:none;stroke:black;opacity:1;stroke-width:0.5;" x1="263" x2="3036" y1="1903" y2="1903"/>
  <g transform="matrix(0.2 0 0 0.2 263 1933)">
   <path d="m46.2402 4.15039c21.7773 0 39.4531-17.627 39.4531-39.4043s-17.6758-39.4043-39.4531-39.4043c-21.7285 0-39.4043 17.627-39.4043 39.4043s17.6758 39.4043 39.4043 39.4043Zm0-7.42188c-17.6758 0-31.9336-14.3066-31.9336-31.9824s14.2578-31.9824 31.9336-31.9824 31.9824 14.3066 31.9824 31.9824-14.3066 31.9824-31.9824 31.9824Zm3.61328-17.7734v-28.4668c0-2.24609-1.46484-3.75977-3.71094-3.75977-2.14844 0-3.61328 1.51367-3.61328 3.75977v28.4668c0 2.19727 1.46484 3.71094 3.61328 3.71094 2.24609 0 3.71094-1.51367 3.71094-3.71094Zm-17.8223-10.5957h28.418c2.19727 0 3.71094-1.46484 3.71094-3.61328 0-2.19727-1.51367-3.71094-3.71094-3.71094h-28.418c-2.24609 0-3.75977 1.51367-3.75977 3.71094 0 2.14844 1.51367 3.61328 3.75977 3.61328Z"/>
  </g>
  <g transform="matrix(0.2 0 0 0.2 281.506 1933)">
   <path d="m58.5449 14.5508c27.4902 0 49.8047-22.3145 49.8047-49.8047s-22.3145-49.8047-49.8047-49.8047-49.8047 22.3145-49.8047 49.8047 22.3145 49.8047 49.8047 49.8047Zm0-8.30078c-22.9492 0-41.5039-18.5547-41.5039-41.5039s18.5547-41.5039 41.5039-41.5039 41.5039 18.5547 41.5039 41.5039-18.5547 41.5039-41.5039 41.5039Zm4.05273-23.0957v-36.9141c0-2.49023-1.70898-4.19922-4.15039-4.19922-2.39258 0-4.05273 1.70898-4.05273 4.19922v36.9141c0 2.44141 1.66016 4.15039 4.05273 4.15039 2.44141 0 4.15039-1.66016 4.15039-4.15039Zm-22.5586-14.4043h36.9629c2.44141 0 4.15039-1.61133 4.15039-4.00391 0-2.44141-1.70898-4.15039-4.15039-4.15039h-36.9629c-2.49023 0-4.15039 1.70898-4.15039 4.15039 0 2.39258 1.66016 4.00391 4.15039 4.00391Z"/>
  </g>
  <g transform="matrix(0.2 0 0 0.2 304.924 1933)">
   <path d="m74.8535 28.3203c35.1074 0 63.623-28.4668 63.623-63.5742s-28.5156-63.623-63.623-63.623-63.5742 28.5156-63.5742 63.623 28.4668 63.5742 63.5742 63.5742Zm0-9.08203c-30.127 0-54.4922-24.3652-54.4922-54.4922s24.3652-54.4922 54.4922-54.4922 54.4922 24.3652 54.4922 54.4922-24.3652 54.4922-54.4922 54.4922Zm4.44336-30.3223v-48.4863c0-2.73438-1.85547-4.63867-4.54102-4.63867-2.58789 0-4.44336 1.9043-4.44336 4.63867v48.4863c0 2.68555 1.85547 4.58984 4.44336 4.58984 2.68555 0 4.54102-1.85547 4.54102-4.58984Zm-28.7109-19.7754h48.4863c2.68555 0 4.58984-1.80664 4.58984-4.39453 0-2.73438-1.85547-4.58984-4.58984-4.58984h-48.4863c-2.73438 0-4.58984 1.85547-4.58984 4.58984 0 2.58789 1.85547 4.39453 4.58984 4.39453Z"/>
  </g>
  <text style="stroke:none;fill:black;font-family:sans-serif;font-size:13;font-weight:bold;" transform="matrix(1 0 0 1 263 1953)">Design Variations</text>
  <text style="stroke:none;fill:black;font-family:sans-serif;font-size:13;" transform="matrix(1 0 0 1 263 1971)">Symbols are supported in up to nine weights and three scales.</text>
  <text style="stroke:none;fill:black;font-family:sans-serif;font-size:13;" transform="matrix(1 0 0 1 263 1989)">For optimal layout with text and other symbols, vertically align</text>
  <text style="stroke:none;fill:black;font-family:sans-serif;font-size:13;" transform="matrix(1 0 0 1 263 2007)">symbols with the adjacent text.</text>
  <line style="fill:none;stroke:#00AEEF;stroke-width:0.5;opacity:1.0;" x1="776" x2="776" y1="1919" y2="1933"/>
  <g transform="matrix(0.2 0 0 0.2 776 1933)">
   <path d="m16.5527 0.78125c2.58789 0 3.85742-0.976562 4.78516-3.71094l20.5566-57.5195h0.244141l20.6055 57.5195c0.927734 2.73438 2.19727 3.71094 4.73633 3.71094 2.58789 0 4.24805-1.5625 4.24805-4.00391 0-0.830078-0.146484-1.61133-0.537109-2.63672l-22.9004-60.9863c-1.12305-2.97852-3.125-4.49219-6.25-4.49219-3.02734 0-5.07812 1.46484-6.15234 4.44336l-22.9004 61.084c-0.390625 1.02539-0.537109 1.80664-0.537109 2.63672 0 2.44141 1.5625 3.95508 4.10156 3.95508Zm10.2051-20.9473h30.6641c2.00195 0 3.66211-1.66016 3.66211-3.66211 0-2.05078-1.66016-3.66211-3.66211-3.66211h-30.6641c-2.00195 0-3.66211 1.61133-3.66211 3.66211 0 2.00195 1.66016 3.66211 3.66211 3.66211Z"/>
  </g>
  <line style="fill:none;stroke:#00AEEF;stroke-width:0.5;opacity:1.0;" x1="792.836" x2="792.836" y1="1919" y2="1933"/>
  <text style="stroke:none;fill:black;font-family:sans-serif;font-size:13;font-weight:bold;" transform="matrix(1 0 0 1 776 1953)">Margins</text>
  <text style="stroke:none;fill:black;font-family:sans-serif;font-size:13;" transform="matrix(1 0 0 1 776 1971)">Leading and trailing margins on the left and right side of each symbol</text>
  <text style="stroke:none;fill:black;font-family:sans-serif;font-size:13;" transform="matrix(1 0 0 1 776 1989)">can be adjusted by modifying the x-location of the margin guidelines.</text>
  <text style="stroke:none;fill:black;font-family:sans-serif;font-size:13;" transform="matrix(1 0 0 1 776 2007)">Modifications are automatically applied proportionally to all</text>
  <text style="stroke:none;fill:black;font-family:sans-serif;font-size:13;" transform="matrix(1 0 0 1 776 2025)">scales and weights.</text>
  <g transform="matrix(0.2 0 0 0.2 1289 1933)">
   <path d="m14.209 13.1348 7.86133 7.86133c4.29688 4.39453 9.32617 4.10156 13.8672-1.02539l60.6934-68.2129-4.88281-4.88281-60.2539 67.6758c-1.80664 1.95312-3.4668 2.44141-5.81055 0.0976562l-5.17578-5.12695c-2.29492-2.29492-1.80664-3.95508 0.195312-5.81055l67.4805-62.1582-4.88281-4.83398-68.0664 62.5977c-4.98047 4.58984-5.32227 9.47266-1.02539 13.8184Zm44.873-97.4609c-2.05078 2.00195-2.24609 4.88281-1.07422 6.78711 1.12305 1.80664 3.4668 3.02734 6.5918 2.24609 5.85938-1.66016 12.5977-2.39258 18.8965 0.927734l-2.68555 7.12891c-1.61133 4.00391-0.732422 6.88477 1.70898 9.42383l10.2539 10.3027c2.34375 2.39258 4.54102 2.44141 7.08008 1.95312l4.44336-0.732422 2.58789 2.53906-0.195312 2.24609c-0.0976562 2.29492 0.537109 4.29688 2.7832 6.49414l3.36914 3.32031c2.29492 2.29492 5.51758 2.49023 7.8125 0.195312l12.9883-13.0371c2.29492-2.34375 2.14844-5.37109-0.195312-7.66602l-3.41797-3.41797c-2.19727-2.19727-4.05273-3.02734-6.34766-2.88086l-2.34375 0.244141-2.44141-2.44141 1.02539-4.6875c0.634766-2.73438-0.244141-4.98047-2.88086-7.61719l-11.2793-11.1816c-12.9395-12.8418-35.5957-11.0352-46.6797-0.146484Zm7.08008 2.05078c8.78906-6.39648 25.9766-5.66406 33.6914 1.95312l12.3047 12.207c1.02539 1.02539 1.2207 1.80664 0.927734 3.32031l-1.46484 6.64062 6.73828 6.68945 4.39453-0.244141c1.12305-0.0488281 1.51367 0.0488281 2.34375 0.878906l2.53906 2.49023-10.8398 10.8398-2.49023-2.49023c-0.830078-0.878906-0.976562-1.2207-0.927734-2.39258l0.292969-4.3457-6.68945-6.73828-6.83594 1.17188c-1.41602 0.292969-2.05078 0.195312-3.17383-0.878906l-8.93555-8.88672c-1.07422-1.02539-1.17188-1.70898-0.488281-3.36914l4.58984-11.4746c-6.10352-6.34766-17.041-7.51953-25.5859-4.58984-0.683594 0.244141-0.927734-0.390625-0.390625-0.78125Z"/>
  </g>
  <text style="stroke:none;fill:black;font-family:sans-serif;font-size:13;font-weight:bold;" transform="matrix(1 0 0 1 1289 1953)">Exporting</text>
  <text style="stroke:none;fill:black;font-family:sans-serif;font-size:13;" transform="matrix(1 0 0 1 1289 1971)">Symbols should be outlined when exporting to ensure the</text>
  <text style="stroke:none;fill:black;font-family:sans-serif;font-size:13;" transform="matrix(1 0 0 1 1289 1989)">design is preserved when submitting to Xcode.</text>
  <text id="template-version" style="stroke:none;fill:black;font-family:sans-serif;font-size:13;text-anchor:end;" transform="matrix(1 0 0 1 3036 1933)">Template v.7.0</text>
  <text style="stroke:none;fill:black;font-family:sans-serif;font-size:13;text-anchor:end;" transform="matrix(1 0 0 1 3036 1951)">Requires Xcode 17 or greater</text>
  <text id="descriptive-name" style="stroke:none;fill:black;font-family:sans-serif;font-size:13;text-anchor:end;" transform="matrix(1 0 0 1 3036 1969)">Generated from moonphase.waxing.gibbous.inverse</text>
  <text style="stroke:none;fill:black;font-family:sans-serif;font-size:13;text-anchor:end;" transform="matrix(1 0 0 1 3036 1987)">Typeset at 100.0 points</text>
  <text style="stroke:none;fill:black;font-family:sans-serif;font-size:13;" transform="matrix(1 0 0 1 263 726)">Small</text>
  <text style="stroke:none;fill:black;font-family:sans-serif;font-size:13;" transform="matrix(1 0 0 1 263 1156)">Medium</text>
  <text style="stroke:none;fill:black;font-family:sans-serif;font-size:13;" transform="matrix(1 0 0 1 263 1586)">Large</text>
 </g>
 <g id="Guides">
  <g id="H-reference" style="fill:#27AAE1;stroke:none;" transform="matrix(1 0 0 1 339 696)">
   <path d="M0.993654 0L3.63775 0L29.3281-67.1323L30.0303-67.1323L30.0303-70.459L28.1226-70.459ZM11.6885-24.4799L46.9815-24.4799L46.2315-26.7285L12.4385-26.7285ZM55.1196 0L57.7637 0L30.6382-70.459L29.4326-70.459L29.4326-67.1323Z"/>
  </g>
  <line id="Baseline-S" style="fill:none;stroke:#27AAE1;opacity:1;stroke-width:0.5;" x1="263" x2="3036" y1="696" y2="696"/>
  <line id="Capline-S" style="fill:none;stroke:#27AAE1;opacity:1;stroke-width:0.5;" x1="263" x2="3036" y1="625.541" y2="625.541"/>
  <g id="H-reference" style="fill:#27AAE1;stroke:none;" transform="matrix(1 0 0 1 339 1126)">
   <path d="M0.993654 0L3.63775 0L29.3281-67.1323L30.0303-67.1323L30.0303-70.459L28.1226-70.459ZM11.6885-24.4799L46.9815-24.4799L46.2315-26.7285L12.4385-26.7285ZM55.1196 0L57.7637 0L30.6382-70.459L29.4326-70.459L29.4326-67.1323Z"/>
  </g>
  <line id="Baseline-M" style="fill:none;stroke:#27AAE1;opacity:1;stroke-width:0.5;" x1="263" x2="3036" y1="1126" y2="1126"/>
  <line id="Capline-M" style="fill:none;stroke:#27AAE1;opacity:1;stroke-width:0.5;" x1="263" x2="3036" y1="1055.54" y2="1055.54"/>
  <g id="H-reference" style="fill:#27AAE1;stroke:none;" transform="matrix(1 0 0 1 339 1556)">
   <path d="M0.993654 0L3.63775 0L29.3281-67.1323L30.0303-67.1323L30.0303-70.459L28.1226-70.459ZM11.6885-24.4799L46.9815-24.4799L46.2315-26.7285L12.4385-26.7285ZM55.1196 0L57.7637 0L30.6382-70.459L29.4326-70.459L29.4326-67.1323Z"/>
  </g>
  <line id="Baseline-L" style="fill:none;stroke:#27AAE1;opacity:1;stroke-width:0.5;" x1="263" x2="3036" y1="1556" y2="1556"/>
  <line id="Capline-L" style="fill:none;stroke:#27AAE1;opacity:1;stroke-width:0.5;" x1="263" x2="3036" y1="1485.54" y2="1485.54"/>
  <line id="right-margin-Regular-M" style="fill:none;stroke:#00AEEF;stroke-width:0.5;opacity:1.0;" x1="1508.37" x2="1508.37" y1="1030.79" y2="1150.12"/>
  <line id="left-margin-Regular-M" style="fill:none;stroke:#00AEEF;stroke-width:0.5;opacity:1.0;" x1="1391.32" x2="1391.32" y1="1030.79" y2="1150.12"/>
 </g>
 <g id="Symbols">
  <g id="Black-L" transform="matrix(1 0 0 1 2854.19 1556)">
   <path class="SFSymbolsPreviewWireframe" d="M31.426-35.2113C31.4468-61.3757 52.293-83.0007 78.3405-83.0007C78.9667-83.0007 79.5137-82.9543 80.1156-82.9043C67.2402-71.2446 59.6577-54.5241 59.6577-35.2089C59.6577-15.9181 67.2366 0.799951 80.124 12.4829C79.5817 12.5537 79.0383 12.5782 78.4949 12.5782C52.3306 12.5782 31.4063-8.98853 31.426-35.2113ZM79.1958 32.6673C116.722 32.6673 147.154 2.23586 147.154-35.2697C147.154-72.7753 116.722-103.207 79.1958-103.207C41.6902-103.207 11.2588-72.7753 11.2588-35.2697C11.2588 2.23586 41.6902 32.6673 79.1958 32.6673Z"/>
  </g>
  <g id="Heavy-L" transform="matrix(1 0 0 1 2558.42 1556)">
   <path class="SFSymbolsPreviewWireframe" d="M29.0252-35.2251C29.0554-62.3016 50.6268-84.4777 77.6141-84.4777C78.6087-84.4777 79.5286-84.3948 80.4762-84.2952C66.3163-72.9229 58.0551-55.6342 58.0551-35.2139C58.0551-14.8406 66.2994 2.43693 80.4212 13.8506C79.5238 13.9805 78.6208 14.0275 77.7178 14.0275C50.6413 14.0275 29.0007-8.10393 29.0252-35.2251ZM78.2532 31.7248C115.252 31.7248 145.278 1.69868 145.278-35.2697C145.278-72.2381 115.252-102.264 78.2532-102.264C41.2849-102.264 11.2588-72.2381 11.2588-35.2697C11.2588 1.69868 41.2849 31.7248 78.2532 31.7248Z"/>
  </g>
  <g id="Bold-L" transform="matrix(1 0 0 1 2262.89 1556)">
   <path class="SFSymbolsPreviewWireframe" d="M26.0292-35.2405C26.0672-63.4391 48.5301-86.3065 76.6703-86.3065C78.1333-86.3065 79.5292-86.1776 80.9145-86.009C65.0819-75.0573 55.8341-56.9723 55.8341-35.214C55.8341-13.5334 65.0422 4.52508 80.7751 15.5412C79.4322 15.7478 78.0761 15.8255 76.72 15.8255C48.5213 15.8255 26.0044-7.01268 26.0292-35.2405ZM77.0704 30.5419C113.401 30.5419 142.92 1.02282 142.92-35.2697C142.92-71.5622 113.401-101.081 77.0704-101.081C40.7779-101.081 11.2588-71.5622 11.2588-35.2697C11.2588 1.02282 40.7779 30.5419 77.0704 30.5419Z"/>
  </g>
  <g id="Semibold-L" transform="matrix(1 0 0 1 1966.99 1556)">
   <path class="SFSymbolsPreviewWireframe" d="M23.9637-35.2511C24.0071-64.2233 47.0847-87.5672 76.0197-87.5672C77.8056-87.5672 79.5295-87.4066 81.2166-87.1905C64.231-76.5287 54.3029-57.8948 54.3029-35.2142C54.3029-12.6323 64.1756 5.96464 81.0191 16.7067C79.3691 16.9662 77.7006 17.065 76.0321 17.065C47.0599 17.065 23.9389-6.26037 23.9637-35.2511ZM76.2549 29.7265C112.125 29.7265 141.294 0.556883 141.294-35.2697C141.294-71.0963 112.125-100.266 76.2549-100.266C40.4284-100.266 11.2588-71.0963 11.2588-35.2697C11.2588 0.556883 40.4284 29.7265 76.2549 29.7265Z"/>
  </g>
  <g id="Medium-L" transform="matrix(1 0 0 1 1670.9 1556)">
   <path class="SFSymbolsPreviewWireframe" d="M22.3976-35.2592C22.4451-64.8179 45.9887-88.5232 75.5264-88.5232C77.5571-88.5232 79.5298-88.3384 81.4457-88.0863C63.5858-77.6445 53.1419-58.5943 53.1419-35.2143C53.1419-11.949 63.5184 7.05618 81.2041 17.5904C79.3212 17.89 77.4158 18.0048 75.5105 18.0048C45.9517 18.0048 22.3726-5.68994 22.3976-35.2592ZM75.6366 29.1081C111.157 29.1081 140.062 0.203591 140.062-35.2697C140.062-70.743 111.157-99.6475 75.6366-99.6475C40.1633-99.6475 11.2588-70.743 11.2588-35.2697C11.2588 0.203591 40.1633 29.1081 75.6366 29.1081Z"/>
  </g>
  <g id="Regular-L" transform="matrix(1 0 0 1 1374.99 1556)">
   <path class="SFSymbolsPreviewWireframe" d="M20.3549-35.2697C20.4076-65.5935 44.5591-89.7701 74.8829-89.7701C77.2329-89.7701 79.5302-89.5539 81.7445-89.2548C62.7442-79.0997 51.6276-59.5067 51.6276-35.2144C51.6276-11.0578 62.6612 8.47992 81.4454 18.7431C79.2587 19.095 77.0444 19.2307 74.8301 19.2307C44.5063 19.2307 20.3298-4.9459 20.3549-35.2697ZM74.8301 28.3017C109.895 28.3017 138.454-0.257224 138.454-35.2697C138.454-70.2822 109.895-98.8411 74.8301-98.8411C39.8177-98.8411 11.2588-70.2822 11.2588-35.2697C11.2588-0.257224 39.8177 28.3017 74.8301 28.3017Z"/>
  </g>
  <g id="Light-L" transform="matrix(1 0 0 1 1079.2 1556)">
   <path class="SFSymbolsPreviewWireframe" d="M18.141-35.2697C18.1746-66.3187 42.8987-91.0297 73.9477-91.0297C76.6985-91.0297 79.4157-90.7754 81.9926-90.3808C61.3128-80.9319 48.574-60.1938 48.574-35.1762C48.574-10.3326 61.1726 10.3121 81.5981 19.8882C79.0679 20.3164 76.491 20.4903 73.9141 20.4903C42.865 20.4903 18.154-4.22066 18.141-35.2697ZM73.9141 27.3856C108.426 27.3856 136.603-0.791611 136.603-35.2697C136.603-69.7478 108.426-97.925 73.9141-97.925C39.436-97.925 11.2588-69.7478 11.2588-35.2697C11.2588-0.791611 39.436 27.3856 73.9141 27.3856Z"/>
  </g>
  <g id="Thin-L" transform="matrix(1 0 0 1 783.716 1556)">
   <path class="SFSymbolsPreviewWireframe" d="M15.2129-35.2697C15.2214-67.2779 40.7026-92.6957 72.7109-92.6957C75.9918-92.6957 79.2642-92.3909 82.3207-91.8701C59.4197-83.3551 44.5353-61.1025 44.5353-35.1257C44.5353-9.37338 59.2037 12.7353 81.8 21.4027C78.8155 21.9319 75.759 22.1563 72.7024 22.1563C40.6942 22.1563 15.2765-3.26147 15.2129-35.2697ZM72.7024 26.174C106.482 26.174 134.155-1.49838 134.155-35.2697C134.155-69.041 106.482-96.7134 72.7024-96.7134C38.9311-96.7134 11.2588-69.041 11.2588-35.2697C11.2588-1.49838 38.9311 26.174 72.7024 26.174Z"/>
  </g>
  <g id="Ultralight-L" transform="matrix(1 0 0 1 487.631 1556)">
   <path class="SFSymbolsPreviewWireframe" d="M13.7132-35.2697C13.7087-67.7692 39.5778-93.549 72.0774-93.549C75.6298-93.549 79.1867-93.2183 82.4888-92.6329C58.45-84.5963 42.4667-61.5679 42.4667-35.0999C42.4667-8.88209 58.1953 13.9765 81.9034 22.1784C78.6862 22.7593 75.384 23.0096 72.0819 23.0096C39.5823 23.0096 13.8026-2.77018 13.7132-35.2697ZM72.0819 25.5534C105.487 25.5534 132.9-1.86039 132.9-35.2697C132.9-68.679 105.487-96.0928 72.0819-96.0928C38.6726-96.0928 11.2588-68.679 11.2588-35.2697C11.2588-1.86039 38.6726 25.5534 72.0819 25.5534Z"/>
  </g>
  <g id="Black-M" transform="matrix(1 0 0 1 2871.36 1126)">
   <path class="SFSymbolsPreviewWireframe" d="M26.1103-35.2035C26.1158-54.7885 41.7205-71.1412 61.1913-71.1412C61.4141-71.1412 61.5744-71.1314 61.7925-71.1224C52.694-61.9377 47.1829-49.3169 47.1829-35.2041C47.1829-21.096 52.6948-8.4746 61.8406 0.715015C61.6793 0.729508 61.5182 0.73415 61.3571 0.73415C41.7721 0.73415 26.1045-15.5615 26.1103-35.2035ZM62.0422 18.0589C91.4941 18.0589 115.367-5.81424 115.367-35.2606C115.367-64.707 91.4941-88.5802 62.0422-88.5802C32.5958-88.5802 8.72266-64.707 8.72266-35.2606C8.72266-5.81424 32.5958 18.0589 62.0422 18.0589Z"/>
  </g>
  <g id="Heavy-M" transform="matrix(1 0 0 1 2575.48 1126)">
   <path class="SFSymbolsPreviewWireframe" d="M23.9677-35.217C23.9841-55.6268 40.2449-72.4688 60.5674-72.4688C61.1134-72.4688 61.5994-72.4269 62.1222-72.3782C51.9228-63.4094 45.898-50.3387 45.898-35.2125C45.898-20.1095 51.916-7.04337 62.1171 1.94641C61.6402 2.01155 61.1611 2.03478 60.6819 2.03478C40.2721 2.03478 23.9535-14.7637 23.9677-35.217ZM61.2053 17.222C90.1923 17.222 113.704-6.29008 113.704-35.2606C113.704-64.2312 90.1923-87.7433 61.2053-87.7433C32.2348-87.7433 8.72266-64.2312 8.72266-35.2606C8.72266-6.29008 32.2348 17.222 61.2053 17.222Z"/>
  </g>
  <g id="Bold-M" transform="matrix(1 0 0 1 2279.69 1126)">
   <path class="SFSymbolsPreviewWireframe" d="M21.5708-35.2321C21.5995-56.5645 38.5943-73.9539 59.8696-73.9539C60.7771-73.9539 61.6275-73.8761 62.491-73.783C51.0601-65.0556 44.4606-51.4817 44.4606-35.2218C44.4606-19.006 51.0447-5.44233 62.4264 3.32389C61.5965 3.4457 60.7616 3.48972 59.9266 3.48972C38.5942 3.48972 21.5473-13.8712 21.5708-35.2321ZM60.2692 16.2859C88.7361 16.2859 111.844-6.82236 111.844-35.2606C111.844-63.6989 88.7361-86.8071 60.2692-86.8071C31.8309-86.8071 8.72266-63.6989 8.72266-35.2606C8.72266-6.82236 31.8309 16.2859 60.2692 16.2859Z"/>
  </g>
  <g id="Semibold-M" transform="matrix(1 0 0 1 1983.62 1126)">
   <path class="SFSymbolsPreviewWireframe" d="M19.9185-35.2425C19.9555-57.211 37.4563-74.9777 59.3885-74.9777C60.5452-74.9777 61.6468-74.8752 62.7453-74.7514C50.4654-66.1905 43.4696-52.2697 43.4696-35.2283C43.4696-18.2452 50.4441-4.33858 62.6396 4.27352C61.5664 4.43439 60.4862 4.49275 59.4059 4.49275C37.4374 4.49275 19.8885-13.2559 19.9185-35.2425ZM59.6238 15.6405C87.7321 15.6405 110.562-7.18932 110.562-35.2606C110.562-63.332 87.7321-86.1618 59.6238-86.1618C31.5524-86.1618 8.72266-63.332 8.72266-35.2606C8.72266-7.18932 31.5524 15.6405 59.6238 15.6405Z"/>
  </g>
  <g id="Medium-M" transform="matrix(1 0 0 1 1687.4 1126)">
   <path class="SFSymbolsPreviewWireframe" d="M18.6656-35.2504C18.709-57.7011 36.5935-75.754 59.0237-75.754C60.3694-75.754 61.6615-75.6328 62.9381-75.4857C50.0144-67.0511 42.7183-52.8672 42.7183-35.2332C42.7183-17.6684 49.9886-3.50167 62.8013 4.99357C61.5436 5.18406 60.2773 5.25329 59.0111 5.25329C36.5603 5.25329 18.6307-12.7893 18.6656-35.2504ZM59.1344 15.1511C86.9709 15.1511 109.59-7.46756 109.59-35.2606C109.59-63.0537 86.9709-85.6724 59.1344-85.6724C31.3413-85.6724 8.72266-63.0537 8.72266-35.2606C8.72266-7.46756 31.3413 15.1511 59.1344 15.1511Z"/>
  </g>
  <g id="Regular-M" transform="matrix(1 0 0 1 1391.32 1126)">
   <path class="SFSymbolsPreviewWireframe" d="M17.0314-35.2606C17.0831-58.3405 35.468-76.7666 58.5478-76.7666C60.1401-76.7666 61.6806-76.6209 63.1895-76.4435C49.4263-68.1735 41.7382-53.6465 41.7382-35.2395C41.7382-16.916 49.3946-2.41005 63.0121 5.93277C61.5138 6.16189 60.005 6.24529 58.4961 6.24529C35.4162 6.24529 16.9902-12.1808 17.0314-35.2606ZM58.4961 14.5128C85.978 14.5128 108.321-7.83049 108.321-35.2606C108.321-62.6908 85.978-85.0341 58.4961-85.0341C31.0659-85.0341 8.72266-62.6908 8.72266-35.2606C8.72266-7.83049 31.0659 14.5128 58.4961 14.5128Z"/>
  </g>
  <g id="Light-M" transform="matrix(1 0 0 1 1095.44 1126)">
   <path class="SFSymbolsPreviewWireframe" d="M15.0465-35.2606C15.0811-58.9907 33.9793-77.8959 57.7094-77.8959C59.661-77.8959 61.578-77.716 63.4119-77.4531C48.1429-69.8162 39.0005-54.2625 39.0005-35.2053C39.0005-16.2657 48.0599-0.7674 63.149 6.95943C61.3427 7.25699 59.5087 7.37462 57.6748 7.37462C33.9447 7.37462 15.0395-11.5306 15.0465-35.2606ZM57.6748 13.6915C84.6605 13.6915 106.662-8.30959 106.662-35.2606C106.662-62.2117 84.6605-84.2128 57.6748-84.2128C30.7237-84.2128 8.72266-62.2117 8.72266-35.2606C8.72266-8.30959 30.7237 13.6915 57.6748 13.6915Z"/>
  </g>
  <g id="Thin-M" transform="matrix(1 0 0 1 799.828 1126)">
   <path class="SFSymbolsPreviewWireframe" d="M12.4213-35.2606C12.4333-59.8507 32.0105-79.3895 56.6005-79.3895C59.0274-79.3895 61.4422-79.1643 63.7061-78.7883C46.4456-71.9887 35.3796-55.0772 35.3796-35.1601C35.3796-15.4058 46.2948 1.40514 63.3301 8.31726C61.1164 8.70535 58.8525 8.86824 56.5885 8.86824C31.9985 8.86824 12.4596-10.6706 12.4213-35.2606ZM56.5885 12.6052C82.9179 12.6052 104.466-8.94325 104.466-35.2606C104.466-61.578 82.9179-83.1265 56.5885-83.1265C30.2711-83.1265 8.72266-61.578 8.72266-35.2606C8.72266-8.94325 30.2711 12.6052 56.5885 12.6052Z"/>
  </g>
  <g id="Ultralight-M" transform="matrix(1 0 0 1 503.679 1126)">
   <path class="SFSymbolsPreviewWireframe" d="M11.0767-35.2606C11.0772-60.2911 31.002-80.1545 56.0325-80.1545C58.7028-80.1545 61.3726-79.9062 63.8568-79.4721C45.5763-73.1015 33.525-55.4945 33.525-35.1369C33.525-14.9653 45.3906 2.5179 63.4228 9.01274C61.0005 9.44719 58.5163 9.63326 56.0321 9.63326C31.0016 9.63326 11.1382-10.2302 11.0767-35.2606ZM56.0321 12.0488C82.0254 12.0488 103.342-9.26781 103.342-35.2606C103.342-61.2535 82.0254-82.5701 56.0321-82.5701C30.0393-82.5701 8.72266-61.2535 8.72266-35.2606C8.72266-9.26781 30.0393 12.0488 56.0321 12.0488Z"/>
  </g>
  <g id="Black-S" transform="matrix(1 0 0 1 2884.57 696)">
   <path class="SFSymbolsPreviewWireframe" d="M20.9961-35.2051C20.9961-50.3418 33.0566-63.0371 48.0957-63.0371C48.1934-63.0371 48.2422-63.0371 48.3398-63.0371C41.4551-55.8105 37.207-45.9961 37.207-35.2051C37.207-24.4141 41.4551-14.5996 48.3887-7.37305C48.3398-7.37305 48.291-7.37305 48.2422-7.37305C33.1055-7.37305 20.9961-20.0195 20.9961-35.2051ZM48.8281 6.73828C72.0215 6.73828 90.8203-12.0605 90.8203-35.2539C90.8203-58.4473 72.0215-77.2461 48.8281-77.2461C25.6348-77.2461 6.83594-58.4473 6.83594-35.2539C6.83594-12.0605 25.6348 6.73828 48.8281 6.73828Z"/>
  </g>
  <g id="Heavy-S" transform="matrix(1 0 0 1 2588.47 696)">
   <path class="SFSymbolsPreviewWireframe" d="M19.4172-35.2166C19.4288-50.9756 31.9849-64.0282 47.6693-64.0282C47.9974-64.0282 48.2768-64.0052 48.5934-63.9821C40.9595-56.8593 36.4579-46.7913 36.4579-35.2166C36.4579-23.6534 40.9595-13.5855 48.6076-6.45109C48.3283-6.41652 48.049-6.40499 47.7697-6.40499C32.0106-6.40499 19.4057-19.4203 19.4172-35.2166ZM48.2173 6.12748C71.0765 6.12748 89.6102-12.4063 89.6102-35.2539C89.6102-58.1015 71.0765-76.6353 48.2173-76.6353C25.3697-76.6353 6.83594-58.1015 6.83594-35.2539C6.83594-12.4063 25.3697 6.12748 48.2173 6.12748Z"/>
  </g>
  <g id="Bold-S" transform="matrix(1 0 0 1 2292.43 696)">
   <path class="SFSymbolsPreviewWireframe" d="M17.6514-35.2295C17.6758-51.6846 30.7861-65.1367 47.1924-65.1367C47.7783-65.1367 48.3154-65.0879 48.877-65.0391C40.4053-58.0322 35.6201-47.6807 35.6201-35.2295C35.6201-22.8027 40.4053-12.4512 48.8525-5.41992C48.3154-5.34668 47.7783-5.32227 47.2412-5.32227C30.7861-5.32227 17.627-18.75 17.6514-35.2295ZM47.5342 5.44434C70.0195 5.44434 88.2568-12.793 88.2568-35.2539C88.2568-57.7148 70.0195-75.9521 47.5342-75.9521C25.0732-75.9521 6.83594-57.7148 6.83594-35.2539C6.83594-12.793 25.0732 5.44434 47.5342 5.44434Z"/>
  </g>
  <g id="Semibold-S" transform="matrix(1 0 0 1 1996.19 696)">
   <path class="SFSymbolsPreviewWireframe" d="M16.4339-35.2384C16.4672-52.1733 29.9597-65.901 46.8636-65.901C47.6272-65.901 48.3421-65.8344 49.0725-65.7678C40.0231-58.8409 35.0425-48.2938 35.0425-35.2384C35.0425-22.2162 40.0231-11.6691 49.0214-4.70898C48.3065-4.60908 47.5917-4.57578 46.8769-4.57578C29.9419-4.57578 16.4006-18.2879 16.4339-35.2384ZM47.0632 4.97334C69.2908 4.97334 87.3237-13.0596 87.3237-35.2539C87.3237-57.4482 69.2908-75.4812 47.0632-75.4812C24.8688-75.4812 6.83594-57.4482 6.83594-35.2539C6.83594-13.0596 24.8688 4.97334 47.0632 4.97334Z"/>
  </g>
  <g id="Medium-S" transform="matrix(1 0 0 1 1699.83 696)">
   <path class="SFSymbolsPreviewWireframe" d="M15.5107-35.2451C15.5508-52.5439 29.333-66.4805 46.6143-66.4805C47.5127-66.4805 48.3623-66.4004 49.2207-66.3203C39.7334-59.4541 34.6045-48.7588 34.6045-35.2451C34.6045-21.7715 39.7334-11.0762 49.1494-4.16992C48.2998-4.0498 47.4502-4.00977 46.6006-4.00977C29.3018-4.00977 15.4707-17.9375 15.5107-35.2451ZM46.7061 4.61621C68.7383 4.61621 86.6162-13.2617 86.6162-35.2539C86.6162-57.2461 68.7383-75.124 46.7061-75.124C24.7139-75.124 6.83594-57.2461 6.83594-35.2539C6.83594-13.2617 24.7139 4.61621 46.7061 4.61621Z"/>
  </g>
  <g id="Regular-S" transform="matrix(1 0 0 1 1403.58 696)">
   <path class="SFSymbolsPreviewWireframe" d="M14.3066-35.2539C14.3555-53.0273 28.5156-67.2363 46.2891-67.2363C47.3633-67.2363 48.3887-67.1387 49.4141-67.041C39.3555-60.2539 34.0332-49.3652 34.0332-35.2539C34.0332-21.1914 39.3555-10.3027 49.3164-3.4668C48.291-3.32031 47.2656-3.27148 46.2402-3.27148C28.4668-3.27148 14.2578-17.4805 14.3066-35.2539ZM46.2402 4.15039C68.0176 4.15039 85.6934-13.5254 85.6934-35.2539C85.6934-56.9824 68.0176-74.6582 46.2402-74.6582C24.5117-74.6582 6.83594-56.9824 6.83594-35.2539C6.83594-13.5254 24.5117 4.15039 46.2402 4.15039Z"/>
  </g>
  <g id="Light-S" transform="matrix(1 0 0 1 1107.6 696)">
   <path class="SFSymbolsPreviewWireframe" d="M12.5508-35.2539C12.5845-53.6025 27.1987-68.2353 45.5474-68.2353C46.9395-68.2353 48.2979-68.1074 49.6108-67.9341C38.2202-61.707 31.6113-49.9102 31.6113-35.2236C31.6113-20.6162 38.1748-8.84962 49.4375-2.5586C48.1396-2.35157 46.8267-2.27247 45.5137-2.27247C27.165-2.27247 12.5322-16.9053 12.5508-35.2539ZM45.5137 3.42383C66.8521 3.42383 84.2251-13.9492 84.2251-35.2539C84.2251-56.5586 66.8521-73.9316 45.5137-73.9316C24.209-73.9316 6.83594-56.5586 6.83594-35.2539C6.83594-13.9492 24.209 3.42383 45.5137 3.42383Z"/>
  </g>
  <g id="Thin-S" transform="matrix(1 0 0 1 811.863 696)">
   <path class="SFSymbolsPreviewWireframe" d="M10.2285-35.2539C10.2422-54.3633 25.4571-69.5566 44.5664-69.5566C46.3789-69.5566 48.1777-69.3887 49.8711-69.1152C36.7188-63.6289 28.4082-50.6308 28.4082-35.1836C28.4082-19.8555 36.6133-6.92776 49.5977-1.35744C47.9395-1.07033 46.2461-0.95119 44.5527-0.95119C25.4434-0.95119 10.25-16.1445 10.2285-35.2539ZM44.5527 2.4629C65.3106 2.4629 82.2832-14.5098 82.2832-35.2539C82.2832-55.9981 65.3106-72.9707 44.5527-72.9707C23.8086-72.9707 6.83594-55.9981 6.83594-35.2539C6.83594-14.5098 23.8086 2.4629 44.5527 2.4629Z"/>
  </g>
  <g id="Ultralight-S" transform="matrix(1 0 0 1 515.649 696)">
   <path class="SFSymbolsPreviewWireframe" d="M9.0391-35.2539C9.04252-54.7529 24.565-70.2334 44.064-70.2334C46.0918-70.2334 48.1162-70.0449 50.0044-69.7202C35.9497-64.6132 26.7676-51 26.7676-35.1631C26.7676-19.4658 35.8135-5.94339 49.6797-0.742209C47.8369-0.414085 45.9487-0.274438 44.0606-0.274438C24.5616-0.274438 9.0811-15.7549 9.0391-35.2539ZM44.0606 1.97072C64.521 1.97072 81.2886-14.7969 81.2886-35.2539C81.2886-55.7109 64.521-72.4785 44.0606-72.4785C23.6035-72.4785 6.83594-55.7109 6.83594-35.2539C6.83594-14.7969 23.6035 1.97072 44.0606 1.97072Z"/>
  </g>
 </g>
</svg>
